<svg width="150" height="150" viewBox="0 0 150 150" fill="none" xmlns="http://www.w3.org/2000/svg">
<g id="check_circle">
<mask id="mask0_1_3216" style="mask-type:alpha" maskUnits="userSpaceOnUse" x="0" y="0" width="150" height="150">
<rect id="Bounding box" width="150" height="150" fill="#D9D9D9"/>
</mask>
<g mask="url(#mask0_1_3216)">
<path id="check_circle_2" d="M65.875 106.344L111.813 60.4063L101.5 50.0938L65.875 85.7188L48.5312 68.375L38.375 78.6875L65.875 106.344ZM75.4278 141.969C66.2468 141.969 57.6205 140.246 49.5489 136.799C41.4772 133.353 34.4243 128.613 28.39 122.579C22.3557 116.544 17.6155 109.499 14.1694 101.441C10.7231 93.3842 9 84.7651 9 75.5841C9 66.2989 10.7231 57.6205 14.1694 49.5489C17.6155 41.4772 22.3476 34.4476 28.3655 28.46C34.3834 22.4723 41.4248 17.732 49.4897 14.2392C57.5546 10.7464 66.1819 9 75.3717 9C84.6656 9 93.3545 10.7424 101.438 14.2272C109.522 17.7119 116.554 22.4411 122.534 28.415C128.514 34.3889 133.248 41.4137 136.736 49.4895C140.225 57.5653 141.969 66.2563 141.969 75.5625C141.969 84.7579 140.222 93.3906 136.73 101.46C133.237 109.53 128.496 116.576 122.509 122.598C116.521 128.619 109.499 133.353 101.441 136.799C93.3842 140.246 84.713 141.969 75.4278 141.969ZM75.4062 127.281C89.7812 127.281 101.995 122.262 112.047 112.223C122.099 102.184 127.125 89.9642 127.125 75.5625C127.125 61.1875 122.099 48.974 112.047 38.9219C101.995 28.8698 89.7552 23.8438 75.3281 23.8438C61.0052 23.8438 48.8177 28.8698 38.7656 38.9219C28.7135 48.974 23.6875 61.2135 23.6875 75.6406C23.6875 89.9635 28.7069 102.151 38.7456 112.203C48.7844 122.255 61.0046 127.281 75.4062 127.281Z" fill="#57D044"/>
</g>
</g>
</svg>
