<svg width="60" height="60" viewBox="0 0 60 60" fill="none" xmlns="http://www.w3.org/2000/svg">
<g id="Frame 16">
<rect width="60" height="60" rx="30" fill="#1890FF"/>
<g id="note_stack">
<mask id="mask0_1_3017" style="mask-type:alpha" maskUnits="userSpaceOnUse" x="15" y="15" width="30" height="30">
<rect id="Bounding box" x="15" y="15" width="30" height="30" fill="#D9D9D9"/>
</mask>
<g mask="url(#mask0_1_3017)">
<path id="note_stack_2" d="M23.7499 40.4167V25.8229C23.7499 25.2456 23.9548 24.7558 24.3645 24.3535C24.7742 23.9512 25.2673 23.75 25.8437 23.75H40.4166C40.9895 23.75 41.48 23.954 41.8879 24.362C42.2959 24.77 42.4999 25.2604 42.4999 25.8333V36.25L36.2499 42.5H25.8332C25.2603 42.5 24.7699 42.296 24.3619 41.888C23.9539 41.4801 23.7499 40.9896 23.7499 40.4167ZM17.5312 22.5C17.4201 21.9236 17.5312 21.408 17.8645 20.9531C18.1978 20.4983 18.6527 20.2153 19.2291 20.1042L33.6041 17.5521C34.1805 17.441 34.6961 17.5486 35.1509 17.875C35.6058 18.2014 35.8888 18.6528 35.9999 19.2292L36.4374 21.6667H34.3333L33.9687 19.6042L19.6041 22.1354L21.6666 33.8647V38.5C21.2777 38.4097 20.9392 38.2222 20.651 37.9375C20.3628 37.6528 20.1805 37.2986 20.1041 36.875L17.5312 22.5ZM25.8332 25.8333V40.4167H35.1666V35.1667H40.4166V25.8333H25.8332Z" fill="white"/>
</g>
</g>
</g>
</svg>
