<svg width="60" height="60" viewBox="0 0 60 60" fill="none" xmlns="http://www.w3.org/2000/svg">
<g id="Frame 13">
<rect width="60" height="60" rx="30" fill="#F5F5F5"/>
<g id="alarm">
<mask id="mask0_1_2716" style="mask-type:alpha" maskUnits="userSpaceOnUse" x="15" y="15" width="30" height="30">
<rect id="Bounding box" x="15" y="15" width="30" height="30" fill="#D9D9D9"/>
</mask>
<g mask="url(#mask0_1_2716)">
<path id="alarm_2" d="M29.9792 42.4583C28.4306 42.4583 26.974 42.1649 25.6095 41.5781C24.2449 40.9913 23.0574 40.1927 22.047 39.1823C21.0366 38.1719 20.2345 36.9844 19.6407 35.6198C19.047 34.2552 18.7501 32.7935 18.7501 31.2347C18.7501 29.6759 19.047 28.2159 19.6407 26.8545C20.2345 25.4932 21.0366 24.3038 22.047 23.2865C23.0574 22.2691 24.2449 21.467 25.6095 20.8802C26.974 20.2934 28.4306 20 29.9792 20C31.5279 20 32.9845 20.2934 34.3491 20.8802C35.7136 21.467 36.9046 22.2691 37.922 23.2865C38.9393 24.3038 39.7414 25.4932 40.3282 26.8545C40.915 28.2159 41.2084 29.6759 41.2084 31.2347C41.2084 32.7935 40.915 34.2552 40.3282 35.6198C39.7414 36.9844 38.9393 38.1719 37.922 39.1823C36.9046 40.1927 35.7136 40.9913 34.3491 41.5781C32.9845 42.1649 31.5279 42.4583 29.9792 42.4583ZM33.6667 36.375L35.1251 34.9167L31.0834 30.875V25H29.0001V31.7083L33.6667 36.375ZM21.7917 17.9167L23.2501 19.375L18.0626 24.4375L16.6042 22.9792L21.7917 17.9167ZM38.1667 17.9167L43.3542 22.9792L41.8959 24.4375L36.7084 19.375L38.1667 17.9167ZM29.9802 40.375C32.5282 40.375 34.6893 39.4876 36.4637 37.7127C38.2379 35.9378 39.1251 33.7763 39.1251 31.2283C39.1251 28.6803 38.2376 26.5191 36.4627 24.7448C34.6879 22.9705 32.5264 22.0833 29.9784 22.0833C27.4304 22.0833 25.2692 22.9708 23.4949 24.7457C21.7206 26.5206 20.8334 28.682 20.8334 31.2301C20.8334 33.7781 21.7209 35.9393 23.4958 37.7136C25.2707 39.4879 27.4321 40.375 29.9802 40.375Z" fill="#BCBCBC"/>
</g>
</g>
</g>
</svg>
