<svg width="60" height="60" viewBox="0 0 60 60" fill="none" xmlns="http://www.w3.org/2000/svg">
<g id="Frame 2">
<rect width="60" height="60" rx="30" fill="#1890FF"/>
<g id="engineering">
<mask id="mask0_1_30" style="mask-type:alpha" maskUnits="userSpaceOnUse" x="15" y="14" width="31" height="31">
<rect id="Bounding box" x="15.3792" y="14.8089" width="30" height="30" fill="#D9D9D9"/>
</mask>
<g mask="url(#mask0_1_30)">
<path id="engineering_2" d="M16.6917 41.0589V37.9756C16.6917 37.2742 16.8618 36.6666 17.2021 36.1527C17.5423 35.6388 18.018 35.2325 18.6292 34.9339C19.7333 34.3923 20.9347 33.9409 22.2333 33.5797C23.5319 33.2186 24.9903 33.0381 26.6083 33.0381C28.2264 33.0381 29.6847 33.2186 30.9833 33.5797C32.2819 33.9409 33.4833 34.3923 34.5875 34.9339C35.1986 35.2325 35.6743 35.6388 36.0146 36.1527C36.3548 36.6666 36.525 37.2742 36.525 37.9756V41.0589H16.6917ZM18.775 38.9756H34.4417V37.9756C34.4417 37.6909 34.3635 37.4513 34.2073 37.2568C34.051 37.0624 33.8583 36.9131 33.6292 36.8089C32.7819 36.42 31.7941 36.0416 30.6656 35.6735C29.5371 35.3054 28.1847 35.1214 26.6083 35.1214C25.0319 35.1214 23.6795 35.3054 22.551 35.6735C21.4225 36.0416 20.4347 36.42 19.5875 36.8089C19.3583 36.9131 19.1656 37.0624 19.0093 37.2568C18.8531 37.4513 18.775 37.6909 18.775 37.9756V38.9756ZM26.6083 31.3714C25.2333 31.3714 24.091 30.9096 23.1812 29.986C22.2715 29.0624 21.8167 27.927 21.8167 26.5797H21.5042C21.3305 26.5797 21.183 26.519 21.0614 26.3975C20.9399 26.2759 20.8792 26.1283 20.8792 25.9547C20.8792 25.7811 20.9399 25.6336 21.0614 25.512C21.183 25.3905 21.3305 25.3297 21.5042 25.3297H21.8167C21.8167 24.4617 22.0319 23.6805 22.4625 22.986C22.893 22.2916 23.4555 21.7325 24.15 21.3089V22.5172C24.15 22.6631 24.2003 22.7863 24.301 22.8871C24.4017 22.9877 24.525 23.0381 24.6708 23.0381C24.8305 23.0381 24.9573 22.9877 25.051 22.8871C25.1448 22.7863 25.1917 22.6631 25.1917 22.5172V20.8714C25.3653 20.8228 25.584 20.7829 25.8479 20.7516C26.1118 20.7204 26.3722 20.7048 26.6292 20.7048C26.8861 20.7048 27.1465 20.7204 27.4104 20.7516C27.6743 20.7829 27.893 20.8228 28.0667 20.8714V22.5172C28.0667 22.6631 28.1135 22.7863 28.2073 22.8871C28.301 22.9877 28.4278 23.0381 28.5875 23.0381C28.7333 23.0381 28.8566 22.9877 28.9573 22.8871C29.058 22.7863 29.1083 22.6631 29.1083 22.5172V21.3089C29.8028 21.7325 30.3583 22.2916 30.775 22.986C31.1916 23.6805 31.4 24.4617 31.4 25.3297H31.7125C31.8861 25.3297 32.0337 25.3905 32.1552 25.512C32.2767 25.6336 32.3375 25.7811 32.3375 25.9547C32.3375 26.1283 32.2767 26.2759 32.1552 26.3975C32.0337 26.519 31.8861 26.5797 31.7125 26.5797H31.4C31.4 27.927 30.9451 29.0624 30.0354 29.986C29.1257 30.9096 27.9833 31.3714 26.6083 31.3714ZM26.6083 29.2881C27.4208 29.2881 28.0753 29.0329 28.5719 28.5225C29.0684 28.012 29.3167 27.3645 29.3167 26.5797H23.9C23.9 27.3645 24.1482 28.012 24.6448 28.5225C25.1413 29.0329 25.7958 29.2881 26.6083 29.2881ZM36.025 33.5381L35.9208 32.6214C35.7819 32.552 35.6413 32.4738 35.4989 32.387C35.3566 32.3002 35.2264 32.2047 35.1083 32.1006L34.275 32.4964L33.6083 31.4547L34.3792 30.8506C34.3514 30.7742 34.3375 30.7013 34.3375 30.6318V30.1943C34.3375 30.1249 34.3514 30.052 34.3792 29.9756L33.6083 29.3714L34.275 28.3297L35.1083 28.7256C35.2333 28.6283 35.3653 28.5346 35.5042 28.4443C35.643 28.354 35.7819 28.2742 35.9208 28.2047L36.025 27.2881H37.275L37.3792 28.2047C37.518 28.2742 37.6569 28.354 37.7958 28.4443C37.9347 28.5346 38.0667 28.6283 38.1917 28.7256L39.025 28.3297L39.6917 29.3714L38.9208 29.9756C38.9486 30.052 38.9625 30.1249 38.9625 30.1943V30.6318C38.9625 30.7013 38.9486 30.7742 38.9208 30.8506L39.6917 31.4547L39.025 32.4964L38.1917 32.1006C38.0736 32.2047 37.9434 32.3002 37.801 32.387C37.6587 32.4738 37.518 32.552 37.3792 32.6214L37.275 33.5381H36.025ZM36.65 31.5172C36.9555 31.5172 37.216 31.4096 37.4312 31.1943C37.6465 30.979 37.7542 30.7186 37.7542 30.4131C37.7542 30.1075 37.6465 29.8471 37.4312 29.6318C37.216 29.4165 36.9555 29.3089 36.65 29.3089C36.3444 29.3089 36.084 29.4165 35.8687 29.6318C35.6535 29.8471 35.5458 30.1075 35.5458 30.4131C35.5458 30.7186 35.6535 30.979 35.8687 31.1943C36.084 31.4096 36.3444 31.5172 36.65 31.5172ZM39.2333 26.9339L38.9625 25.7672C38.7611 25.6908 38.5614 25.5884 38.3635 25.4599C38.1656 25.3315 37.9972 25.1908 37.8583 25.0381L36.5042 25.5172L35.7958 24.2881L36.8792 23.3922C36.8375 23.2881 36.8062 23.1839 36.7854 23.0797C36.7646 22.9756 36.7542 22.8645 36.7542 22.7464C36.7542 22.6283 36.7646 22.5172 36.7854 22.4131C36.8062 22.3089 36.8375 22.2047 36.8792 22.1006L35.7958 21.2047L36.5042 19.9756L37.8583 20.4547C37.9972 20.302 38.1656 20.1578 38.3635 20.0224C38.5614 19.887 38.7611 19.7881 38.9625 19.7256L39.2333 18.5589H40.6083L40.8792 19.7256C41.0805 19.7881 41.2802 19.887 41.4781 20.0224C41.676 20.1578 41.8444 20.302 41.9833 20.4547L43.3375 19.9756L44.0458 21.2047L42.9625 22.1006C43.0042 22.2047 43.0354 22.3089 43.0562 22.4131C43.0771 22.5172 43.0875 22.6283 43.0875 22.7464C43.0875 22.8645 43.0771 22.9756 43.0562 23.0797C43.0354 23.1839 43.0042 23.2881 42.9625 23.3922L44.0458 24.2881L43.3375 25.5172L41.9833 25.0381C41.8444 25.1908 41.676 25.3315 41.4781 25.4599C41.2802 25.5884 41.0805 25.6908 40.8792 25.7672L40.6083 26.9339H39.2333ZM39.9208 24.4756C40.4139 24.4756 40.8253 24.3106 41.1552 23.9808C41.4851 23.6509 41.65 23.2395 41.65 22.7464C41.65 22.2533 41.4851 21.8419 41.1552 21.512C40.8253 21.1821 40.4139 21.0172 39.9208 21.0172C39.4278 21.0172 39.0163 21.1821 38.6864 21.512C38.3566 21.8419 38.1917 22.2533 38.1917 22.7464C38.1917 23.2395 38.3566 23.6509 38.6864 23.9808C39.0163 24.3106 39.4278 24.4756 39.9208 24.4756Z" fill="white"/>
</g>
</g>
</g>
</svg>
