<svg width="60" height="60" viewBox="0 0 60 60" fill="none" xmlns="http://www.w3.org/2000/svg">
<g id="Frame 15">
<rect width="60" height="60" rx="30" fill="#1890FF"/>
<g id="person_apron">
<mask id="mask0_1_2947" style="mask-type:alpha" maskUnits="userSpaceOnUse" x="15" y="15" width="30" height="30">
<rect id="Bounding box" x="15" y="15" width="30" height="30" fill="#D9D9D9"/>
</mask>
<g mask="url(#mask0_1_2947)">
<path id="person_apron_2" d="M29.8448 29.4138C28.4655 29.4138 27.2945 28.9325 26.3319 27.9698C25.3693 27.0072 24.8879 25.8362 24.8879 24.4569C24.8879 23.0776 25.3693 21.9066 26.3319 20.944C27.2945 19.9813 28.4655 19.5 29.8448 19.5C31.2241 19.5 32.3951 19.9813 33.3578 20.944C34.3204 21.9066 34.8017 23.0776 34.8017 24.4569C34.8017 25.8362 34.3204 27.0072 33.3578 27.9698C32.3951 28.9325 31.2241 29.4138 29.8448 29.4138ZM19.5 39.7802V36.5474C19.5 35.8003 19.6904 35.1196 20.0711 34.5054C20.4519 33.8912 20.9799 33.4296 21.6552 33.1207C22.9483 32.5172 24.2804 32.0395 25.6516 31.6875C27.0228 31.3355 28.4205 31.1595 29.8448 31.1595C31.2744 31.1595 32.6699 31.3391 34.0312 31.6983C35.3926 32.0575 36.7198 32.5316 38.0129 33.1207C38.6882 33.4296 39.2198 33.8912 39.6078 34.5054C39.9957 35.1196 40.1897 35.8003 40.1897 36.5474V39.7802H19.5ZM29.8448 27.2586C30.6279 27.2586 31.2906 26.9874 31.833 26.445C32.3754 25.9027 32.6466 25.2399 32.6466 24.4569C32.6466 23.6738 32.3754 23.0111 31.833 22.4687C31.2906 21.9263 30.6279 21.6552 29.8448 21.6552C29.0618 21.6552 28.3991 21.9263 27.8567 22.4687C27.3143 23.0111 27.0431 23.6738 27.0431 24.4569C27.0431 25.2399 27.3143 25.9027 27.8567 26.445C28.3991 26.9874 29.0618 27.2586 29.8448 27.2586ZM35.0172 34.1983V37.625H38.0345V36.5474C38.0345 36.2286 37.9519 35.9388 37.7866 35.6779C37.6214 35.4171 37.3951 35.2112 37.1078 35.0603C36.7629 34.8879 36.4163 34.7317 36.0679 34.5916C35.7195 34.4515 35.3692 34.3204 35.0172 34.1983ZM26.8276 33.5962V35.4698H32.8621V33.6056C32.3592 33.505 31.8599 33.4314 31.3642 33.3847C30.8685 33.338 30.3621 33.3146 29.8448 33.3146C29.3276 33.3146 28.8211 33.338 28.3254 33.3847C27.8297 33.4314 27.3305 33.5019 26.8276 33.5962ZM21.6552 37.625H24.6724V34.1767C24.3204 34.2988 23.9666 34.4335 23.611 34.5808C23.2554 34.7281 22.9052 34.8879 22.5604 35.0603C22.273 35.2112 22.0503 35.4171 21.8922 35.6779C21.7342 35.9388 21.6552 36.2286 21.6552 36.5474V37.625Z" fill="white"/>
</g>
</g>
</g>
</svg>
