<svg width="60" height="60" viewBox="0 0 60 60" fill="none" xmlns="http://www.w3.org/2000/svg">
<g id="Frame 14">
<rect width="60" height="60" rx="30" fill="#1890FF"/>
<g id="autorenew">
<mask id="mask0_1_2890" style="mask-type:alpha" maskUnits="userSpaceOnUse" x="15" y="15" width="30" height="30">
<rect id="Bounding box" x="15" y="15" width="30" height="30" fill="#D9D9D9"/>
</mask>
<g mask="url(#mask0_1_2890)">
<path id="autorenew_2" d="M21.2083 34.7917C20.7778 34.0278 20.4687 33.2535 20.2812 32.4688C20.0937 31.684 20 30.8819 20 30.0625C20 27.3125 20.9792 24.9549 22.9375 22.9896C24.8958 21.0243 27.25 20.0417 30 20.0417H30.9688L28.6354 17.7083L30.0312 16.3125L34.8021 21.0833L30.0312 25.8542L28.6146 24.4375L30.9271 22.125H30C27.8194 22.125 25.9549 22.901 24.4062 24.4531C22.8576 26.0052 22.0833 27.875 22.0833 30.0625C22.0833 30.6458 22.1423 31.2049 22.2604 31.7396C22.3785 32.2743 22.5347 32.7847 22.7292 33.2708L21.2083 34.7917ZM29.9271 43.75L25.1562 38.9792L29.9271 34.2083L31.3229 35.6042L28.9896 37.9375H30C32.1806 37.9375 34.0451 37.1615 35.5938 35.6094C37.1424 34.0573 37.9167 32.1875 37.9167 30C37.9167 29.4167 37.8611 28.8576 37.75 28.3229C37.6389 27.7882 37.4722 27.2778 37.25 26.7917L38.7708 25.2708C39.2014 26.0347 39.5139 26.809 39.7083 27.5938C39.9028 28.3785 40 29.1806 40 30C40 32.75 39.0208 35.1076 37.0625 37.0729C35.1042 39.0382 32.75 40.0208 30 40.0208H28.9896L31.3229 42.3542L29.9271 43.75Z" fill="white"/>
</g>
</g>
</g>
</svg>
